<?xml version="1.0" encoding="UTF-8"?>
<svg version="1.1" viewBox="0 0 2048 2048" width="512" height="512" xmlns="http://www.w3.org/2000/svg">
<path transform="translate(473)" d="m0 0h1103l47 7 30 6 34 9 29 10 27 11 25 12 23 12 21 13 12 8 17 12 14 11 13 11 11 9 7 7 2 1v2l4 2 14 14v2h2l7 8 10 11 20 25 12 17 12 18 12 20 15 28 11 24 11 28 10 31 7 26 7 37 6 44v1093l-5 40-6 33-5 22-7 25-10 29-10 24-8 18-10 19-10 18-12 19-13 19-12 16-11 13-9 11-11 12-30 30-11 9-14 12-19 14-27 18-24 14-27 14-29 13-30 11-31 9-30 7-41 7-24 3h-1095l-50-7-31-6-30-8-36-12-29-12-23-11-22-12-23-14-23-16-13-10-11-9-13-11-13-12-29-29-9-11-12-14-15-20-18-27-14-24-12-23-11-24-13-34-9-29-7-29-4-21-7-49v-1103l8-53 7-31 7-26 11-32 11-26 12-25 14-26 14-22 13-19 10-13 8-10 11-13 9-10 1-2h2l2-4 23-23 8-7 14-12 14-11 16-12 24-16 15-9 18-10 15-8 29-13 35-13 35-10 33-7 30-5z" fill="#1966CE"/>
<path transform="translate(1301,761)" d="m0 0h15l12 2 12 5 10 6 10 9 9 14 4 11 2 11 1 15v384l-1 10-1 5-1 8-8 17-9 10-9 8-16 8-20 4-12-2-9-1-16-8-9-7-7-8-5-7-5-12-3-16-1-11v-391l2-15 6-15 7-11 8-8 14-9 10-4z" fill="#FEFEFD"/>
<path transform="translate(729,761)" d="m0 0h15l12 2 12 5 10 6 10 9 7 10 5 11 3 15 1 16v383l-1 10-1 5-1 8-8 17-11 12-7 6-16 8-21 4-7-2h-10l-13-6-9-5-15-15-6-12-3-10-2-11-1-13v-388l2-16 6-15 7-11 8-8 14-9 11-4z" fill="#FEFEFD"/>
<path transform="translate(1020,760)" d="m0 0 13 1 16 4 15 8 10 9 8 13 5 12 2 12 1 355v45l-2 17-4 12-8 14-10 11-11 7-13 5-15 3h-7l-18-4-16-8-10-9-6-7-8-16-3-14-1-8-1-108v-203l1-91 4-16 8-16 9-10 8-7 14-7 11-3z" fill="#FEFEFD"/>
<path transform="translate(464,1201)" d="m0 0h16l12 2 13 5 9 6 10 9 7 10 5 11 3 15 1 15 1 47 3 16 7 20 8 14 10 13 9 9 15 10 10 6 16 6 14 3 7 1 59 2 16 3 17 8 12 11 7 10 6 14 2 9v16l-1 4-1 9-8 17-9 10-7 7-15 8-18 4-9 1h-39l-31-2-22-4-24-6-21-8-19-9-15-9-15-10-10-9-11-9-10-10-9-11-10-11-12-19-11-19-11-28-7-26-4-23-2-24v-51l2-15 5-12 6-10 9-10 11-8 11-5z" fill="#FEFEFD"/>
<path transform="translate(1565,1201)" d="m0 0h15l13 2 14 6 11 8 7 7 7 11 5 12 3 21v43l-2 28-4 23-6 23-8 21-11 22-10 16-9 13-12 13-8 10-15 13-12 11-17 11-21 12-24 10-23 7-26 5-36 3h-44l-5-2h-8l-13-5-11-6-10-9-8-11-5-11-4-19 1-9 1-11 7-16 8-11 10-9 12-7 9-3 11-2 11-1 51-1 15-3 21-7 16-9 10-8 10-10 10-15 6-10 6-17 3-14 1-8 1-53 2-16 7-16 8-11 10-9 14-8z" fill="#FEFEFD"/>
<path transform="translate(1354,496)" d="m0 0h42l30 2 24 4 21 5 26 10 25 13 14 9 13 10 11 10 8 7 8 8 9 11 7 8 7 10 13 22 6 12 9 24 4 13 6 29 2 18 1 17v41l-1 9-1 4-1 9-9 19-15 15-15 8-16 4-10 1-5-2h-10l-13-6-9-5-7-6-7-8-6-10-4-12-3-21-1-50-2-13-8-24-7-13-9-12-8-9-16-11-11-7-16-6-14-3-8-1-25-1h-31l-5-2h-8l-13-5-11-6-10-9-8-11-5-11-4-19 1-9 1-11 5-12 6-10 9-10 8-6 14-7 13-3z" fill="#FEFEFD"/>
<path transform="translate(644,496)" d="m0 0h47l21 3 15 6 11 8 7 7 7 11 5 12 2 9v16l-1 3v7l-8 18-6 8-11 11-15 8-19 4-10 1-52 1-15 3-20 7-14 8-13 10-9 10-9 13-8 16-4 10-3 16-1 9-1 47-1 10-1 5-1 8-8 17-9 10-9 8-16 8-20 4-12-2-9-1-16-8-11-9-9-11-6-13-4-22v-49l3-33 6-28 7-21 8-18 9-17 14-22 13-15 15-16 10-9 15-12 15-10 16-9 10-5 20-8 20-6 25-5 16-2z" fill="#FEFEFD"/>
</svg>
